Coordinates
version=1
nRows=17
nColumns=24
inDegrees=yes

Units are S.I. units (second, meters, Newtons, ...)
Angles are in degrees.

endheader
time	pelvis_tilt	pelvis_list	pelvis_rotation	pelvis_tx	pelvis_ty	pelvis_tz	hip_flexion_r	hip_adduction_r	hip_rotation_r	knee_angle_r	ankle_angle_r	subtalar_angle_r	mtp_angle_r	hip_flexion_l	hip_adduction_l	hip_rotation_l	knee_angle_l	ankle_angle_l	subtalar_angle_l	mtp_angle_l	lumbar_extension	lumbar_bending	lumbar_rotation
      3.15000000	      4.92069742	     -1.33656052	     -2.10030800	      0.15257185	      1.02081118	      0.00285257	     12.58620679	      1.95935896	     -6.58298022	     -5.77725629	      7.56437460	      0.00000000	      0.00000000	    -14.02304208	      2.58715297	      0.66097785	     -4.91194375	     14.48279615	      0.00000000	      0.00000000	    -18.90395617	     -1.45088222	     -5.69189794
      3.16000000	      4.93102057	     -1.39704584	     -2.01540786	      0.15256741	      1.01986329	      0.00401554	     11.62698682	      2.32896118	     -6.52328516	     -2.98986016	      6.77420059	      0.00000000	      0.00000000	    -14.45082974	      2.43784941	      0.65539605	     -5.06479929	     14.78779685	      0.00000000	      0.00000000	    -18.92336448	     -1.36244776	     -5.60666865
      3.17000000	      4.86260929	     -1.41159799	     -1.99290508	      0.15253978	      1.01875880	      0.00525564	     11.05474219	      2.61263709	     -6.29870067	     -1.17969040	      6.18596865	      0.00000000	      0.00000000	    -14.71038542	      2.35304338	      0.51064786	     -5.37787369	     15.14485571	      0.00000000	      0.00000000	    -18.85222975	     -1.32597944	     -5.47899792
      3.18000000	      4.96608464	     -1.45980234	     -1.96597626	      0.15262934	      1.01795886	      0.00642656	     10.46820807	      2.88285562	     -6.03158756	     -0.09540899	      5.76442931	      0.00000000	      0.00000000	    -15.15233132	      2.23985100	      0.41039586	     -5.70938427	     15.41256045	      0.00000000	      0.00000000	    -18.96032808	     -1.23416117	     -5.34220427
      3.19000000	      5.03660037	     -1.48121558	     -1.96863167	      0.15263757	      1.01712807	      0.00756881	     10.21001152	      3.07561870	     -5.66114481	      0.07431328	      5.58115893	      0.00000000	      0.00000000	    -15.47381500	      2.16520137	      0.27273377	     -6.20837531	     15.74583832	      0.00000000	      0.00000000	    -19.04310536	     -1.16406345	     -5.18524479
      3.20000000	      5.19082639	     -1.55246560	     -1.96999687	      0.15278976	      1.01651497	      0.00866090	      9.97697219	      3.29434735	     -5.34739038	     -0.27922561	      5.35601324	      0.00000000	      0.00000000	    -15.87231792	      2.04384274	      0.10917140	     -6.74800414	     16.04272165	      0.00000000	      0.00000000	    -19.20159604	     -1.02120512	     -5.01270752
      3.21000000	      5.32289222	     -1.59468833	     -1.87365692	      0.15310037	      1.01594668	      0.00964427	      9.84443608	      3.44115206	     -5.00428716	     -1.03042974	      5.06006262	      0.00000000	      0.00000000	    -16.23561146	      1.91579011	      0.14341789	     -7.29600985	     16.09893487	      0.00000000	      0.00000000	    -19.31267948	     -0.87500436	     -4.97389000
      3.22000000	      5.55417889	     -1.65800055	     -1.80724990	      0.15349364	      1.01555424	      0.01060715	      9.69280842	      3.59702568	     -4.64900586	     -2.12812193	      4.73209698	      0.00000000	      0.00000000	    -16.65229402	      1.78436711	      0.08387889	     -7.98089883	     16.27287144	      0.00000000	      0.00000000	    -19.52805519	     -0.69713516	     -4.88089155
      3.23000000	      5.82799659	     -1.72315950	     -1.88851979	      0.15406166	      1.01516231	      0.01179665	      9.63920966	      3.77643836	     -4.30538840	     -3.65171482	      4.81412395	      0.00000000	      0.00000000	    -17.05905869	      1.69387861	     -0.33269472	     -8.83749135	     16.78466789	      0.00000000	      0.00000000	    -19.76332025	     -0.55844852	     -4.62406442
      3.24000000	      5.86218951	     -1.67208237	     -1.86165989	      0.15467217	      1.01449761	      0.01277775	      9.85847738	      3.80179014	     -3.91615870	     -5.24161116	      4.75565439	      0.00000000	      0.00000000	    -17.13486200	      1.68089153	     -0.42714225	     -9.78790790	     16.95756179	      0.00000000	      0.00000000	    -19.71076876	     -0.49095976	     -4.52307216
      3.25000000	      6.03724798	     -1.62144903	     -1.72777491	      0.15559459	      1.01420123	      0.01362637	      9.69519496	      3.81448213	     -3.68516900	     -6.38419827	      4.32121692	      0.00000000	      0.00000000	    -17.37216979	      1.63700003	     -0.46142468	    -10.72192003	     16.99185225	      0.00000000	      0.00000000	    -19.78544785	     -0.39482653	     -4.51600115
      3.26000000	      6.17085125	     -1.57877388	     -1.54687526	      0.15680500	      1.01399345	      0.01445705	      9.42192061	      3.83304243	     -3.36291832	     -7.23390130	      3.92852196	      0.00000000	      0.00000000	    -17.57022947	      1.55689353	     -0.35913881	    -11.64119150	     16.79066932	      0.00000000	      0.00000000	    -19.77822652	     -0.27519575	     -4.53919560
      3.27000000	      6.12234297	     -1.48743192	     -1.34984490	      0.15782336	      1.01358990	      0.01525543	      9.36250828	      3.79617248	     -3.29114635	     -8.03944798	      3.57263577	      0.00000000	      0.00000000	    -17.27351734	      1.50760676	     -0.44484469	    -13.14719392	     16.92118773	      0.00000000	      0.00000000	    -19.58585342	     -0.19748821	     -4.55672944
      3.28000000	      6.22066729	     -1.38031270	     -1.18064526	      0.15919652	      1.01368854	      0.01609645	      8.95209691	      3.74297046	     -3.07543500	     -8.48094870	      3.31466301	      0.00000000	      0.00000000	    -17.27089232	      1.48207841	     -0.36801922	    -14.34887907	     16.46022408	      0.00000000	      0.00000000	    -19.52504212	     -0.15142189	     -4.50745605
      3.29000000	      6.29685309	     -1.25121026	     -0.99707118	      0.16060264	      1.01397595	      0.01698214	      8.46435052	      3.66923109	     -2.97091009	     -8.68800066	      3.12395152	      0.00000000	      0.00000000	    -17.09864956	      1.45988287	     -0.36901111	    -15.80662552	     15.92755126	      0.00000000	      0.00000000	    -19.43974945	     -0.14308891	     -4.45646386
      3.30000000	      6.16245438	     -1.17684080	     -0.53588607	      0.16189903	      1.01419616	      0.01761179	      8.02098106	      3.62157238	     -3.13322081	     -8.49388042	      2.79272930	      0.00000000	      0.00000000	    -16.34744107	      1.25591732	     -0.48417903	    -17.87271166	     15.41915675	      0.00000000	      0.00000000	    -19.12806890	     -0.00267823	     -4.65705528
      3.31000000	      6.23400536	     -1.06297439	     -0.35138299	      0.16328283	      1.01492375	      0.01854123	      7.43120968	      3.56109057	     -3.09511748	     -8.48932911	      2.78345157	      0.00000000	      0.00000000	    -15.91679257	      1.19664419	     -0.45088358	    -19.72533309	     14.59369907	      0.00000000	      0.00000000	    -19.04834478	      0.00351299	     -4.50437109
